# xmcd
#
# Track frame offsets:
#	150
#	35172
#	64910
#	83422
#	107542
#	123947
#	155620
#	196250
#	233115
#	271625
#
# Disc length: 4286 seconds
#
# Revision: 0
# Processed by: cddbd v1.5.2PL0 Copyright (c) Steve Scherf et al.
# Submitted via: EasyCDDAExtractor 4.5.0.2
#
DISCID=7910bc0a
DTITLE=dawkins/ beau/ bragason - blues from iceland
DYEAR=1995
DGENRE=Blues
TTITLE0=Welfare Line
TTITLE1=That's Alright
TTITLE2=You Don't Love Me
TTITLE3=Feel So Bad
TTITLE4=Too Much Alcohol
TTITLE5=Tin Pan Alley
TTITLE6=Help Me
TTITLE7=One Room Country Shack
TTITLE8=Nightlife
TTITLE9=Sometimes I Have A Heartache
EXTD=
EXTT0=
EXTT1=
EXTT2=
EXTT3=
EXTT4=
EXTT5=
EXTT6=
EXTT7=
EXTT8=
EXTT9=
PLAYORDER=
